<svg width="40" height="40" viewBox="0 0 40 40" fill="none" xmlns="http://www.w3.org/2000/svg">
<path d="M35.7188 5.43747C35.4609 5.2147 35.1471 5.06643 34.8112 5.00862C34.4754 4.95081 34.1301 4.98563 33.8125 5.10934L4.9844 16.4375C4.60976 16.5865 4.29314 16.8524 4.08153 17.1956C3.86992 17.5388 3.77458 17.9411 3.80966 18.3428C3.84474 18.7445 4.00837 19.1241 4.27628 19.4255C4.54418 19.7268 4.90209 19.9337 5.2969 20.0156L13.125 21.5937V31.25C13.1203 31.622 13.2282 31.9867 13.4345 32.2962C13.6409 32.6058 13.9361 32.8457 14.2813 32.9843C14.5149 33.0773 14.7642 33.1251 15.0156 33.125C15.2597 33.1252 15.5014 33.077 15.7267 32.9831C15.952 32.8893 16.1565 32.7516 16.3281 32.5781L20.7969 28.1093L27.3906 33.9062C27.7285 34.2121 28.1693 34.3795 28.625 34.375C28.8215 34.3745 29.0166 34.3428 29.2031 34.2812C29.5103 34.1804 29.7866 34.0025 30.0054 33.7645C30.2243 33.5265 30.3784 33.2364 30.4531 32.9218L36.3281 7.26559C36.4051 6.93432 36.3888 6.58822 36.2813 6.26559C36.1738 5.94295 35.9791 5.65635 35.7188 5.43747V5.43747ZM5.0469 18.2343C5.02831 18.0989 5.05703 17.9612 5.12819 17.8445C5.19936 17.7278 5.30862 17.6392 5.43752 17.5937L31.875 7.21872L13.6094 20.4062L5.5469 18.7968C5.41261 18.7726 5.29034 18.704 5.19968 18.602C5.10903 18.5 5.05522 18.3705 5.0469 18.2343ZM15.4375 31.6875C15.3526 31.7757 15.2431 31.8363 15.1233 31.8614C15.0034 31.8865 14.8788 31.8749 14.7656 31.8281C14.6504 31.7815 14.5517 31.7016 14.4822 31.5986C14.4126 31.4956 14.3753 31.3742 14.375 31.25V22.4531L19.8594 27.2812L15.4375 31.6875ZM35.1094 6.99997L29.2344 32.6406C29.211 32.7469 29.1595 32.845 29.0853 32.9247C29.0111 33.0044 28.9169 33.0628 28.8125 33.0937C28.7117 33.1299 28.6028 33.1374 28.4979 33.1154C28.3931 33.0933 28.2964 33.0425 28.2188 32.9687L14.75 21.125L35.0156 6.48434C35.0667 6.55883 35.1015 6.64327 35.1177 6.73213C35.1338 6.821 35.131 6.91227 35.1094 6.99997V6.99997Z" fill="#F0F0F0"/>
</svg>
