<svg width="40" height="40" viewBox="0 0 40 40" fill="none" xmlns="http://www.w3.org/2000/svg">
<path d="M20 4.375C17.2647 4.37471 14.5773 5.09246 12.2064 6.45648C9.83553 7.82051 7.86425 9.78303 6.48967 12.1478C5.11509 14.5126 4.38537 17.1968 4.37347 19.932C4.36157 22.6673 5.06791 25.3577 6.42187 27.7344L5.01562 32.6719C4.92548 32.9925 4.92236 33.3313 5.00658 33.6535C5.0908 33.9757 5.25932 34.2697 5.49481 34.5052C5.7303 34.7407 6.02427 34.9092 6.34648 34.9934C6.66869 35.0776 7.00751 35.0745 7.32812 34.9844L12.2656 33.5781C14.3448 34.762 16.6681 35.4526 19.0564 35.5967C21.4446 35.7407 23.8341 35.3344 26.0405 34.4089C28.2469 33.4835 30.2113 32.0638 31.7823 30.2591C33.3532 28.4545 34.4887 26.3132 35.1013 24.0003C35.7139 21.6874 35.7871 19.2648 35.3153 16.9192C34.8436 14.5735 33.8394 12.3675 32.3803 10.4713C30.9212 8.57511 29.0461 7.03931 26.8996 5.98234C24.7532 4.92536 22.3926 4.37545 20 4.375ZM20 34.375C17.4147 34.381 14.8763 33.6843 12.6562 32.3594C12.5593 32.31 12.4525 32.2833 12.3437 32.2813H12.1719L6.98437 33.7656C6.87837 33.7941 6.76675 33.7941 6.66074 33.7657C6.55472 33.7373 6.45805 33.6815 6.38045 33.6039C6.30284 33.5263 6.24704 33.4296 6.21866 33.3236C6.19027 33.2176 6.1903 33.106 6.21874 33L7.70312 27.8125C7.74706 27.6491 7.72459 27.475 7.64062 27.3281C6.02373 24.5995 5.35467 21.4127 5.73767 18.2642C6.12066 15.1157 7.5342 12.1822 9.7581 9.92077C11.982 7.65933 14.8914 6.19689 18.033 5.76124C21.1747 5.3256 24.3722 5.94122 27.1276 7.51221C29.8829 9.0832 32.0413 11.5213 33.2666 14.4468C34.4918 17.3724 34.7151 20.621 33.9017 23.6866C33.0883 26.7522 31.2838 29.4628 28.7694 31.396C26.2549 33.3293 23.1717 34.3767 20 34.375ZM27.8906 22.8906L24.7031 21.0781C24.4125 20.9116 24.0828 20.8254 23.7479 20.8281C23.4129 20.8308 23.0847 20.9225 22.7969 21.0938L20.6406 22.3906C19.3418 21.717 18.283 20.6582 17.6094 19.3594L18.9062 17.2031C19.0775 16.9152 19.1692 16.5871 19.1719 16.2521C19.1746 15.9172 19.0884 15.5875 18.9219 15.2969L17.1094 12.1094C16.9589 11.8487 16.7425 11.6321 16.482 11.4813C16.2215 11.3305 15.926 11.2507 15.625 11.25C14.3016 11.25 13.0322 11.7746 12.095 12.7089C11.1577 13.6432 10.6291 14.911 10.625 16.2344C10.6229 17.9593 10.9609 19.6677 11.6196 21.2619C12.2783 22.8561 13.2447 24.3048 14.4637 25.5253C15.6827 26.7457 17.1302 27.7139 18.7237 28.3744C20.3171 29.035 22.0251 29.375 23.75 29.375H23.7656C25.089 29.3709 26.3567 28.8423 27.2911 27.905C28.2254 26.9678 28.75 25.6984 28.75 24.375C28.7493 24.074 28.6695 23.7785 28.5187 23.518C28.3679 23.2575 28.1513 23.0411 27.8906 22.8906ZM23.7656 28.125H23.75C20.5991 28.1209 17.5787 26.8663 15.3522 24.6368C13.1256 22.4073 11.875 19.3853 11.875 16.2344C11.8791 15.2425 12.276 14.2927 12.9789 13.5928C13.6817 12.8929 14.6331 12.5 15.625 12.5C15.705 12.5011 15.7833 12.5234 15.8519 12.5645C15.9205 12.6057 15.977 12.6643 16.0156 12.7344L17.8437 15.9219C17.8971 16.0202 17.925 16.1303 17.925 16.2422C17.925 16.3541 17.8971 16.4642 17.8437 16.5625L16.375 19C16.3209 19.0857 16.2896 19.1838 16.2841 19.285C16.2787 19.3862 16.2992 19.4871 16.3437 19.5781C17.1575 21.3913 18.6087 22.8425 20.4219 23.6562C20.5129 23.7008 20.6138 23.7213 20.715 23.7159C20.8162 23.7104 20.9143 23.6791 21 23.625L23.4375 22.1563C23.5358 22.1029 23.6459 22.075 23.7578 22.075C23.8697 22.075 23.9798 22.1029 24.0781 22.1563L27.2656 23.9844C27.3357 24.023 27.3943 24.0795 27.4355 24.1481C27.4766 24.2167 27.4989 24.295 27.5 24.375C27.5 25.3669 27.1071 26.3183 26.4072 27.0211C25.7073 27.724 24.7575 28.1209 23.7656 28.125Z" fill="#2A2325"/>
</svg>
